# xmcd
#
# Track frame offsets:
#   150
#   25245
#   43685
#   67672
#   92032
#   109820
#   134792
#   154710
#   185322
#   209810
#
# Disc length: 3064 seconds
#
# Revision: 0
# Processed by: cddbd v1.4PL0 Copyright (c) Steve Scherf et al.
# Submitted via: uFREEDB ActiveX Control (MinMusik) 1.4 (0.9)
#
DISCID=8b0bf60a
DTITLE=Jessy Dixon and the Chicago Community Choir - Give God the Glory
DYEAR=1994
DGENRE=Gospel and Religious
TTITLE0=Trouble won't last always
TTITLE1=Glorify the Lord
TTITLE2=Give God the Glory
TTITLE3=Everlasting Life
TTITLE4=Sunday, Monday, Tuesday, He's Lord
TTITLE5=I Know What Prayer Can Do
TTITLE6=Destined to Win
TTITLE7=Lord I Lift My Spirit To You
TTITLE8=Greatly to be Praised
TTITLE9=Magnify the Lord
EXTD=RM CD 056
EXTT0=
EXTT1=
EXTT2=
EXTT3=
EXTT4=
EXTT5=
EXTT6=
EXTT7=
EXTT8=
EXTT9=
PLAYORDER=
